<svg width="58" height="28" viewBox="0 0 58 28" fill="none" xmlns="http://www.w3.org/2000/svg">
<path fill-rule="evenodd" clip-rule="evenodd" d="M9.69405 2.0928C9.70504 2.02636 9.7567 1.88019 9.8754 1.82704L12.744 0.149423L12.777 0.132812H22.1411C22.8226 0.177106 24.4954 0.398573 25.7351 0.930094C26.4001 1.25676 27.9443 2.10609 28.8016 2.89008C29.3071 3.34409 30.5062 4.63081 31.258 6.14565C31.5548 6.69378 32.1845 8.23519 32.3296 10.0158L32.3626 16.909C32.3736 17.4183 32.234 18.8623 31.5877 20.4303C31.302 21.1058 30.4832 22.6959 29.494 23.7191C29.0543 24.2284 27.8058 25.4133 26.3286 26.0777C25.7626 26.4099 24.1129 27.0776 22.0422 27.1573L12.8594 27.174L9.89188 25.4631C9.82044 25.4244 9.68086 25.2904 9.69405 25.0645V2.0928ZM16.2223 5.64725H19.9482C20.3933 5.65833 21.4122 5.75023 21.9265 6.02928C21.9101 6.02049 23.0641 6.46114 23.8225 7.15877C23.8225 7.15877 24.6797 7.873 25.2238 9.01909C25.3557 9.26824 25.6689 9.96254 25.8008 10.8794C25.8228 11.0732 25.8634 11.5804 25.8503 12.0587L25.8338 16.1614C25.8338 16.4936 25.6722 17.4636 25.0259 18.6861C24.8281 19.0405 24.2082 19.9086 23.3114 20.5465C22.9817 20.8122 22.0123 21.3869 20.7725 21.5597C20.3329 21.604 19.2756 21.6826 18.5634 21.6427H16.2223V5.64725Z" fill="#ED2227"/>
<path d="M0.0164862 25.2805L0 2.02642V1.87693L3.21481 0L6.47908 1.91015V25.3469L3.24778 27.2405L0.0164862 25.2805Z" fill="#ED2227"/>
<path d="M35.7422 1.82726C35.6235 1.90699 35.5828 2.04873 35.5773 2.10963V25.0149C35.5509 25.2541 35.6652 25.4024 35.7257 25.4467L38.6108 27.141H39.0724L41.875 25.4966C42.0729 25.4168 42.1113 25.2592 42.1058 25.1903V12.8896L51.6019 25.4135L54.52 27.141H54.9321L57.7513 25.4966C57.9359 25.3903 57.9931 25.2862 57.9986 25.2474V2.12624C58.0117 1.96679 57.9271 1.88263 57.8831 1.86048L54.9981 0.16626H54.5035L51.7008 1.79404C51.5294 1.87377 51.4755 2.00444 51.47 2.0598V14.4011L41.941 1.84387L39.0889 0.16626H38.5778L37.6711 0.697781L35.7422 1.82726Z" fill="#ED2227"/>
</svg>
