<?xml version="1.0" encoding="UTF-8"?>
<svg id="Layer_1" data-name="Layer 1" xmlns="http://www.w3.org/2000/svg" viewBox="0 0 640 160">
  <defs>
    <style>
      .cls-1 {
        fill: #ec272a;
      }

      .cls-2 {
        fill: none;
      }
    </style>
  </defs>
  <rect class="cls-2" y="-23.78" width="640" height="207.57"/>
  <g>
    <path class="cls-1" d="m21.98,47.08l-7.57-4.39c-.23-.13-.49-.2-.75-.2s-.52.07-.75.2l-7.57,4.39c-.23.13-.41.32-.55.55-.13.23-.2.49-.2.75v63.23c0,.26.07.52.2.75.13.23.32.42.55.55l7.57,4.39c.23.13.49.2.75.2s.52-.07.75-.2l7.57-4.39c.23-.13.42-.32.55-.55.13-.23.2-.49.2-.75v-63.23c0-.26-.07-.52-.2-.75-.13-.23-.32-.42-.55-.55Z"/>
    <path class="cls-1" d="m165.87,47.08l-7.57-4.39c-.23-.13-.49-.2-.75-.2s-.52.07-.75.2l-7.57,4.39c-.23.13-.42.32-.55.55-.13.23-.2.49-.2.75v33.89l-26.04-34.1-.53-.7c-.12-.16-.28-.28-.45-.38-.07-.05-.16-.1-.27-.16h-.03l-7.26-4.21c-.23-.13-.49-.2-.75-.2s-.52.07-.75.2l-7.57,4.39c-.23.13-.42.32-.55.55-.13.23-.2.49-.2.75v63.2c0,.26.07.52.2.75.13.23.32.42.55.55l7.57,4.39c.23.13.49.2.75.2s.52-.07.75-.2l7.57-4.39c.23-.13.41-.32.55-.55.13-.23.2-.49.2-.75v-33.86l26.7,34.96h.04c.09.09.18.16.29.22l7.57,4.39c.23.13.49.2.75.2s.52-.07.75-.2l7.57-4.39c.23-.13.41-.32.55-.55.13-.23.2-.49.2-.75v-63.25c0-.26-.07-.52-.21-.75-.13-.23-.32-.42-.55-.55Z"/>
    <path class="cls-1" d="m65.04,42.49h-24.22c-.26,0-.52.07-.75.2l-7.57,4.39c-.23.13-.42.32-.55.55-.13.23-.2.48-.2.75v63.23c0,.26.07.52.2.75.13.23.32.42.55.55l7.57,4.39c.25.15.54.21.83.2h24.13c7.95,0,15.57-3.17,21.19-8.79,5.62-5.62,8.78-13.24,8.79-21.19v-15.04c0-7.95-3.16-15.57-8.78-21.19-5.62-5.62-13.24-8.78-21.19-8.79Zm11.85,42.88c0,2.21-.44,4.41-1.28,6.45-.85,2.05-2.09,3.9-3.66,5.47s-3.42,2.81-5.47,3.65c-2.05.85-4.24,1.28-6.45,1.28h-10.14v-44.5h10.14c2.21,0,4.41.44,6.45,1.28,2.05.85,3.9,2.09,5.47,3.65,1.57,1.57,2.81,3.42,3.66,5.47.85,2.05,1.28,4.24,1.28,6.45v10.77Z"/>
  </g>
  <rect class="cls-2" y="-23.78" width="640" height="207.57"/>
</svg>