<?xml version="1.0" encoding="UTF-8"?>
<svg id="Layer_1" data-name="Layer 1" xmlns="http://www.w3.org/2000/svg" xmlns:xlink="http://www.w3.org/1999/xlink" viewBox="0 0 640 160">
  <defs>
    <style>
      .cls-1 {
        fill: #ec272a;
      }

      .cls-2 {
        clip-path: url(#clippath);
      }

      .cls-3 {
        fill: none;
      }

      .cls-4 {
        fill: #010101;
      }
    </style>
    <clipPath id="clippath">
      <rect class="cls-3" x="5.62" width="493.33" height="160"/>
    </clipPath>
  </defs>
  <g class="cls-2">
    <g>
      <path class="cls-1" d="m23,47.92l-7.57-4.39c-.23-.13-.49-.2-.75-.2s-.52.07-.75.2l-7.57,4.39c-.23.13-.41.32-.55.55-.13.23-.2.49-.2.75v63.23c0,.26.07.52.2.75.13.23.32.42.55.55l7.57,4.39c.23.13.49.2.75.2s.52-.07.75-.2l7.57-4.39c.23-.13.42-.32.55-.55.13-.23.2-.49.2-.75v-63.23c0-.26-.07-.52-.2-.75-.13-.23-.32-.42-.55-.55Z"/>
      <path class="cls-1" d="m166.89,47.92l-7.57-4.39c-.23-.13-.49-.2-.75-.2s-.52.07-.75.2l-7.57,4.39c-.23.13-.42.32-.55.55-.13.23-.2.49-.2.75v33.89l-26.04-34.1-.53-.7c-.12-.16-.28-.28-.45-.38-.07-.05-.16-.1-.27-.16h-.03l-7.26-4.21c-.23-.13-.49-.2-.75-.2s-.52.07-.75.2l-7.57,4.39c-.23.13-.42.32-.55.55-.13.23-.2.49-.2.75v63.2c0,.26.07.52.2.75.13.23.32.42.55.55l7.57,4.39c.23.13.49.2.75.2s.52-.07.75-.2l7.57-4.39c.23-.13.41-.32.55-.55.13-.23.2-.49.2-.75v-33.86l26.7,34.96h.04c.09.09.18.16.29.22l7.57,4.39c.23.13.49.2.75.2s.52-.07.75-.2l7.57-4.39c.23-.13.41-.32.55-.55.13-.23.2-.49.2-.75v-63.25c0-.26-.07-.52-.21-.75-.13-.23-.32-.42-.55-.55Z"/>
      <path class="cls-1" d="m66.06,43.34h-24.22c-.26,0-.52.07-.75.2l-7.57,4.39c-.23.13-.42.32-.55.55-.13.23-.2.48-.2.75v63.23c0,.26.07.52.2.75.13.23.32.42.55.55l7.57,4.39c.25.15.54.21.83.2h24.13c7.95,0,15.57-3.17,21.19-8.79,5.62-5.62,8.78-13.24,8.79-21.19v-15.04c0-7.95-3.16-15.57-8.78-21.19-5.62-5.62-13.24-8.78-21.19-8.79Zm11.85,42.88c0,2.21-.44,4.41-1.28,6.45-.85,2.05-2.09,3.9-3.66,5.47s-3.42,2.81-5.47,3.65c-2.05.85-4.24,1.28-6.45,1.28h-10.14v-44.5h10.14c2.21,0,4.41.44,6.45,1.28,2.05.85,3.9,2.09,5.47,3.65,1.57,1.57,2.81,3.42,3.66,5.47.85,2.05,1.28,4.24,1.28,6.45v10.77Z"/>
      <path class="cls-4" d="m203.89,49.19h17.57l16.41,44.87h.27l16.25-44.87h17.67v63.16h-11.16v-50.76h-.18l-19.16,50.76h-7.85l-18.91-50.76h-.18v50.76h-10.7l-.02-63.16Z"/>
      <path class="cls-4" d="m287.79,49.19h41.84v9.81h-30.6v16.06h28.99v9.46h-28.99v17.84h32.21v10h-43.45v-63.17Z"/>
      <path class="cls-4" d="m344.43,49.19h22.39c4.18,0,8.35.55,12.4,1.6,4.06,1.02,7.88,2.82,11.25,5.31,3.42,2.57,6.2,5.9,8.12,9.72,2.22,4.66,3.29,9.78,3.12,14.94.13,4.94-.94,9.84-3.12,14.27-1.96,3.83-4.73,7.18-8.13,9.82-3.36,2.57-7.18,4.5-11.25,5.67-4.02,1.2-8.2,1.81-12.4,1.83h-22.39v-63.16Zm20.61,53.33c2.95,0,5.88-.35,8.75-1.02,2.84-.64,5.52-1.82,7.92-3.48,2.43-1.73,4.4-4.01,5.75-6.67,1.6-3.3,2.36-6.95,2.23-10.62.15-3.81-.61-7.6-2.23-11.06-1.33-2.67-3.31-4.97-5.75-6.69-2.39-1.62-5.08-2.74-7.92-3.3-2.88-.59-5.81-.89-8.75-.89h-9.37v43.72h9.37Z"/>
      <path class="cls-4" d="m414.83,49.19h11.25v63.16h-11.25v-63.16Z"/>
      <path class="cls-4" d="m462.02,49.19h9.72l27.21,63.16h-12.85l-5.88-14.45h-27.39l-5.71,14.45h-12.58l27.47-63.16Zm14.27,39.08l-9.72-25.69-9.9,25.69h19.62Z"/>
    </g>
  </g>
  <rect class="cls-3" x="2.29" y="160" width="640" height="207.57"/>
</svg>