<?xml version="1.0" encoding="UTF-8"?>
<svg id="Layer_1" data-name="Layer 1" xmlns="http://www.w3.org/2000/svg" viewBox="0 0 1200 160">
  <defs>
    <style>
      .cls-1 {
        fill: #fdfefe;
      }

      .cls-2 {
        fill: #ec272a;
      }

      .cls-3 {
        fill: none;
      }
    </style>
  </defs>
  <g>
    <g>
      <path class="cls-2" d="m28.91,16.98l-12.58-7.3c-.38-.22-.81-.34-1.25-.34s-.87.12-1.25.34L1.24,16.98c-.38.22-.69.53-.91.91C.11,18.27,0,18.7,0,19.13v105.17c0,.44.11.86.33,1.24.22.38.53.69.91.91l12.58,7.3c.38.22.81.34,1.25.34s.87-.12,1.25-.34l12.58-7.3c.38-.22.69-.53.91-.91.22-.38.33-.81.33-1.24V19.13c0-.44-.11-.87-.33-1.24-.22-.38-.53-.69-.91-.91Z"/>
      <path class="cls-2" d="m268.2,16.98l-12.58-7.3c-.38-.22-.81-.34-1.25-.34s-.87.12-1.25.34l-12.58,7.3c-.38.22-.69.53-.91.91-.22.38-.33.81-.33,1.24v56.38l-43.31-56.72-.88-1.17c-.2-.26-.46-.47-.75-.63-.12-.08-.27-.17-.44-.26h-.06l-12.08-7c-.38-.22-.81-.34-1.25-.34s-.87.12-1.25.34l-12.58,7.3c-.38.22-.69.53-.91.91-.22.38-.33.81-.34,1.24v105.12c0,.44.12.87.34,1.24.22.38.53.69.91.91l12.58,7.3c.38.22.81.34,1.25.34s.87-.12,1.25-.34l12.58-7.3c.38-.22.69-.53.91-.91.22-.38.33-.81.33-1.24v-56.33l44.4,58.15h.07c.14.14.3.26.48.37l12.58,7.3c.38.22.81.34,1.25.34s.87-.12,1.25-.34l12.58-7.3c.38-.22.69-.53.91-.91.22-.38.33-.81.33-1.24V19.13c0-.44-.12-.87-.34-1.25-.22-.38-.54-.69-.92-.91Z"/>
      <path class="cls-2" d="m100.51,9.35h-40.28c-.44,0-.87.11-1.25.33l-12.58,7.3c-.38.22-.69.53-.91.91-.22.38-.33.81-.33,1.24v105.17c0,.44.11.86.33,1.24.22.38.53.69.91.91l12.58,7.3c.42.24.9.35,1.39.33h40.13c13.22,0,25.89-5.27,35.24-14.61,9.35-9.35,14.6-22.03,14.61-35.25v-25.01c0-13.22-5.26-25.9-14.61-35.25-9.35-9.35-22.02-14.61-35.23-14.62Zm19.71,71.33c0,3.68-.73,7.33-2.13,10.73-1.41,3.4-3.47,6.5-6.08,9.1s-5.69,4.67-9.1,6.08c-3.4,1.41-7.05,2.14-10.73,2.14h-16.87V34.7h16.87c3.68,0,7.33.73,10.73,2.14,3.4,1.41,6.49,3.48,9.1,6.08,2.6,2.6,4.67,5.7,6.08,9.1,1.41,3.4,2.13,7.05,2.13,10.73v17.92Z"/>
    </g>
    <g>
      <path class="cls-1" d="m387.4,42.93c-3.88-5.47-10.79-8.06-17.84-8.06-8.34,0-16.69,3.74-16.69,13.09,0,20.43,48.33,8.78,48.33,45.04,0,21.87-17.26,32.52-37.26,32.52-12.66,0-25.03-3.88-33.37-13.81l13.67-13.24c4.46,6.76,12.08,10.65,20.14,10.65s17.84-4.6,17.84-13.96c0-22.3-48.33-9.5-48.33-45.9,0-21.01,18.7-30.79,37.54-30.79,10.64,0,21.29,3.02,29.2,10.5l-13.23,13.96Z"/>
      <path class="cls-1" d="m409.13,53.86h18.7l14.96,48.35h.29l13.95-48.35h18.7l14.96,48.35h.29l14.38-48.35h17.41l-23.45,69.07h-17.12l-16.4-47.2h-.29l-14.53,47.2h-17.84l-24.02-69.07Z"/>
      <path class="cls-1" d="m576.13,113.43h-.43c-4.89,7.77-12.95,11.22-22.15,11.22-12.8,0-25.17-7.05-25.17-20.72,0-22.45,26.18-24.03,43.44-24.03h4.31v-1.87c0-8.49-6.62-12.95-15.82-12.95-7.19,0-13.81,2.88-18.41,7.19l-9.06-9.07c7.62-7.77,18.41-11.08,29.34-11.08,29.49,0,29.49,21.3,29.49,31.08v39.71h-15.54v-9.5Zm-1.01-21.44h-3.6c-9.49,0-25.89.72-25.89,10.65,0,6.33,6.47,9.06,12.08,9.06,11.8,0,17.41-6.19,17.41-15.83v-3.88Z"/>
      <path class="cls-1" d="m681.28,53.86v62.88c0,24.89-12.08,40.72-38.98,40.72-12.8,0-24.45-2.73-34.24-11.37l10.36-14.1c6.9,6.33,14.1,9.93,23.73,9.93,16.69,0,21.86-9.5,21.86-23.17v-5.04h-.29c-5.03,6.76-13.95,10.07-22.58,10.07-20.71,0-34.38-15.83-34.38-35.4s12.8-36.26,34.09-36.26c9.64,0,18.7,3.74,23.73,12.09h.29v-10.36h16.4Zm-57.25,34.39c0,10.94,8.63,20,20.28,20,12.8,0,20.57-8.78,20.57-20.29s-7.91-20.29-20.43-20.29-20.43,8.35-20.43,20.58Z"/>
      <path class="cls-1" d="m771.91,53.86v62.88c0,24.89-12.08,40.72-38.98,40.72-12.8,0-24.45-2.73-34.24-11.37l10.36-14.1c6.9,6.33,14.1,9.93,23.73,9.93,16.69,0,21.86-9.5,21.86-23.17v-5.04h-.29c-5.03,6.76-13.95,10.07-22.58,10.07-20.71,0-34.38-15.83-34.38-35.4s12.8-36.26,34.09-36.26c9.64,0,18.7,3.74,23.73,12.09h.29v-10.36h16.4Zm-57.25,34.39c0,10.94,8.63,20,20.28,20,12.8,0,20.57-8.78,20.57-20.29s-7.91-20.29-20.43-20.29-20.43,8.35-20.43,20.58Z"/>
      <path class="cls-1" d="m805.28,94.44c1.15,10.22,8.92,16.4,18.56,16.4,8.63,0,14.24-4.03,18.56-9.35l12.37,9.35c-8.06,9.93-18.27,13.81-29.2,13.81-20.86,0-37.54-14.53-37.54-36.26s16.69-36.26,37.54-36.26c19.27,0,32.36,13.53,32.36,37.56v4.75h-52.65Zm35.39-12.95c-.14-10.07-6.76-16.4-17.55-16.4-10.21,0-16.54,6.47-17.84,16.4h35.39Z"/>
      <path class="cls-1" d="m874.04,53.86h17.26v10.94h.29c3.74-7.91,11.36-12.66,20.43-12.66,2.16,0,4.17.43,6.18,1.01v16.69c-2.88-.72-5.61-1.29-8.34-1.29-16.25,0-18.56,13.67-18.56,17.41v36.98h-17.26V53.86Z"/>
      <path class="cls-1" d="m931.58,21.06h18.12v40.58h47.61V21.06h18.12v101.87h-18.12v-44.89h-47.61v44.89h-18.12V21.06Z"/>
      <path class="cls-1" d="m1099.59,122.93h-16.4v-11.08h-.29c-3.17,6.91-9.64,12.81-21.15,12.81-18.56,0-25.17-13.09-25.17-27.2v-43.6h17.26v34.97c0,7.63.58,20.29,12.66,20.29,11.36,0,15.82-8.35,15.82-17.55v-37.7h17.26v69.07Z"/>
      <path class="cls-1" d="m1119.16,14.15h17.26v48.49h.43c3.6-4.46,10.5-10.5,23.45-10.5,19.71,0,33.37,15.83,33.37,36.26s-12.8,36.26-34.09,36.26c-9.64,0-18.7-3.74-23.73-12.09h-.29v10.36h-16.4V14.15Zm36.97,53.53c-12.66,0-20.28,9.93-20.28,20.72s7.62,20.72,20.28,20.72,20.28-9.93,20.28-20.72-7.62-20.72-20.28-20.72Z"/>
    </g>
  </g>
  <rect class="cls-3" x="226.04" y="-62.21" width="640" height="207.57"/>
  <rect class="cls-3" x="226.04" y="-62.21" width="640" height="207.57"/>
</svg>